<svg width="1200" height="400" viewBox="0 0 1200 400" fill="none" xmlns="http://www.w3.org/2000/svg">
  <rect width="1200" height="400" fill="#4FC3F7"/>
  <path d="M0 300 Q 300 200 600 300 T 1200 300 V 400 H 0 Z" fill="#03A9F4"/>
  <path d="M0 320 Q 300 220 600 320 T 1200 320 V 400 H 0 Z" fill="#0288D1"/>
  <circle cx="900" cy="100" r="60" fill="#FFEB3B" opacity="0.9"/>
  <path d="M890 50 L 910 50 L 910 30 L 890 30 Z" fill="#FFEB3B"/>
  <path d="M850 100 L 850 120 L 870 120 L 870 100 Z" fill="#FFEB3B"/>
  <path d="M930 100 L 930 120 L 950 120 L 950 100 Z" fill="#FFEB3B"/>
  <path d="M890 150 L 910 150 L 910 170 L 890 170 Z" fill="#FFEB3B"/>
  
  <!-- Summer Sale Text as Paths -->
  <path d="M100 120C100 113.333 102.5 108.333 107.5 105C112.5 101.667 118.333 100 125 100C131.667 100 137.5 101.667 142.5 105C147.5 108.333 150 113.333 150 120C150 126.667 147.5 131.667 142.5 135C137.5 138.333 131.667 140 125 140C118.333 140 112.5 138.333 107.5 135C102.5 131.667 100 126.667 100 120Z" fill="white"/>
  <path d="M160 100H180V140H160V100Z" fill="white"/>
  <path d="M190 100H230V120H210V140H190V100Z" fill="white"/>
  <path d="M240 100H280V120H260V140H240V100Z" fill="white"/>
  <path d="M290 100H330V120H310V140H290V100Z" fill="white"/>
  <path d="M340 100H380C386.667 100 391.667 101.667 395 105C398.333 108.333 400 113.333 400 120C400 126.667 398.333 131.667 395 135C391.667 138.333 386.667 140 380 140H340V100Z" fill="white"/>
  <path d="M410 100H450C456.667 100 461.667 101.667 465 105C468.333 108.333 470 113.333 470 120C470 126.667 468.333 131.667 465 135C461.667 138.333 456.667 140 450 140H410V100Z" fill="white"/>
  
  <!-- 50% Off Text as Paths -->
  <path d="M100 200H140C146.667 200 151.667 201.667 155 205C158.333 208.333 160 213.333 160 220C160 226.667 158.333 231.667 155 235C151.667 238.333 146.667 240 140 240H100V200Z" fill="white"/>
  <path d="M170 200H210V220H190V240H170V200Z" fill="white"/>
  <path d="M220 220C220 213.333 222.5 208.333 227.5 205C232.5 201.667 238.333 200 245 200C251.667 200 257.5 201.667 262.5 205C267.5 208.333 270 213.333 270 220C270 226.667 267.5 231.667 262.5 235C257.5 238.333 251.667 240 245 240C238.333 240 232.5 238.333 227.5 235C222.5 231.667 220 226.667 220 220Z" fill="white"/>
  <path d="M280 200H320V240H280V200Z" fill="white"/>
  <path d="M330 200H370V240H330V200Z" fill="white"/>
</svg> 