<svg width="1200" height="400" viewBox="0 0 1200 400" fill="none" xmlns="http://www.w3.org/2000/svg">
  <rect width="1200" height="400" fill="#4FC3F7"/>
  <path d="M0 300 Q 300 200 600 300 T 1200 300 V 400 H 0 Z" fill="#03A9F4"/>
  <path d="M0 320 Q 300 220 600 320 T 1200 320 V 400 H 0 Z" fill="#0288D1"/>
  <circle cx="900" cy="100" r="60" fill="#FFEB3B" opacity="0.9"/>
  <path d="M890 50 L 910 50 L 910 30 L 890 30 Z" fill="#FFEB3B"/>
  <path d="M850 100 L 850 120 L 870 120 L 870 100 Z" fill="#FFEB3B"/>
  <path d="M930 100 L 930 120 L 950 120 L 950 100 Z" fill="#FFEB3B"/>
  <path d="M890 150 L 910 150 L 910 170 L 890 170 Z" fill="#FFEB3B"/>
  <text x="100" y="150" font-family="Arial" font-weight="bold" font-size="60" fill="white">SUMMER SALE</text>
  <text x="100" y="220" font-family="Arial" font-size="36" fill="white">Up to 50% off on summer collection</text>
</svg> 