<svg width="200" height="60" viewBox="0 0 200 60" fill="none" xmlns="http://www.w3.org/2000/svg">
  <path d="M30 10L50 50H10L30 10Z" fill="#1976d2"/>
  <path d="M70 15H90V25H70V15Z" fill="#f50057"/>
  <path d="M65 45L68 35H72L75 45H72L71 42H69L68 45H65ZM69.5 40H70.5L70 37L69.5 40Z" fill="#333333"/>
  <path d="M76 45V35H79V42H83V45H76Z" fill="#333333"/>
  <path d="M84 45V35H87V45H84Z" fill="#333333"/>
  <path d="M89 45V35H92V42H96V45H89Z" fill="#333333"/>
  <path d="M97 45V35H104V38H100V39H103V41H100V42H104V45H97Z" fill="#333333"/>
  <path d="M105 45V35H112L113 40L114 35H121V45H118V38H117L115 45H111L109 38H108V45H105Z" fill="#333333"/>
</svg> 